# xmcd
#
# Track frame offsets:
#	150
#	12618
#	24402
#	37520
#	52235
#	64863
#	76496
#	90206
#	100756
#	114115
#	126105
#	138036
#
# Disc length: 2008 seconds
#
# Revision: 1
# Processed by: cddbd v1.5.2PL0 Copyright (c) Steve Scherf et al.
# Submitted via: audiograbber 1.83.01
#
DISCID=8807d60c
DTITLE=B.B. King - The Blues
DYEAR=1958
DGENRE=Blues
TTITLE0=Why Does Everything Happen To Me
TTITLE1=Ruby Lee
TTITLE2=When My Heart Beats Like A Hammer
TTITLE3=Past Day
TTITLE4=Boogie Woogie Woman
TTITLE5=Early Every Morning
TTITLE6=I Want To Get Married
TTITLE7=That Ain't The Way To Do It
TTITLE8=Troubles, Troubles, Troubles
TTITLE9=Don't You Want A Man Like Me
TTITLE10=You Know I Go For You
TTITLE11=What Can I Do
EXTD=
EXTT0=
EXTT1=
EXTT2=
EXTT3=
EXTT4=
EXTT5=
EXTT6=
EXTT7=
EXTT8=
EXTT9=
EXTT10=
EXTT11=
PLAYORDER=
